# MagicaVoxel @ ephtracy

# material
mtllib ship.mtl
usemtl palette

# normals
vn -1 0 0
vn 1 0 0
vn 0 0 1
vn 0 0 -1
vn 0 -1 0
vn 0 1 0

# texcoords
vt 0.958984 0.5
vt 0.994141 0.5

# verts
v -12.5 8 -10.5
v -12.5 8 -12.5
v -12.5 9 -10.5
v -12.5 9 -12.5
v -3.5 8 -0.5
v -3.5 8 -1.5
v -3.5 9 -0.5
v -3.5 9 -1.5
v -2.5 7 0.5
v -2.5 7 -0.5
v -2.5 8 1.5
v -2.5 8 0.5
v -2.5 8 -0.5
v -2.5 9 1.5
v -2.5 9 0.5
v -2.5 9 -0.5
v -2.5 10 0.5
v -2.5 10 -0.5
v -1.5 7 1.5
v -1.5 7 0.5
v -1.5 8 2.5
v -1.5 8 1.5
v -1.5 8 0.5
v -1.5 8 -1.5
v -1.5 8 -9.5
v -1.5 9 2.5
v -1.5 9 1.5
v -1.5 9 0.5
v -1.5 9 -1.5
v -1.5 9 -9.5
v -1.5 10 1.5
v -1.5 10 0.5
v -0.5 6 0.5
v -0.5 6 -3.5
v -0.5 6 -8.5
v -0.5 6 -11.5
v -0.5 7 2.5
v -0.5 7 1.5
v -0.5 7 0.5
v -0.5 7 -3.5
v -0.5 7 -8.5
v -0.5 7 -11.5
v -0.5 7 -12.5
v -0.5 8 2.5
v -0.5 8 1.5
v -0.5 8 0.5
v -0.5 8 -1.5
v -0.5 8 -9.5
v -0.5 8 -11.5
v -0.5 8 -12.5
v -0.5 9 2.5
v -0.5 9 1.5
v -0.5 9 0.5
v -0.5 9 -1.5
v -0.5 9 -9.5
v -0.5 10 2.5
v -0.5 10 1.5
v -0.5 10 0.5
v -0.5 10 -9.5
v 0.5 8 3.5
v 0.5 8 2.5
v 0.5 9 3.5
v 0.5 9 2.5
v 0.5 10 -0.5
v 0.5 10 -8.5
v 0.5 11 -0.5
v 0.5 11 -8.5
v 2.5 8 -10.5
v 2.5 8 -11.5
v 2.5 9 -10.5
v 2.5 9 -11.5
v 8.5 6 0.5
v 8.5 6 -8.5
v 8.5 7 0.5
v 8.5 7 -8.5
v 10.5 8 12.5
v 10.5 8 11.5
v 10.5 8 -2.5
v 10.5 8 -10.5
v 10.5 9 12.5
v 10.5 9 11.5
v 10.5 9 -2.5
v 10.5 9 -10.5
v 11.5 8 11.5
v 11.5 8 0.5
v 11.5 8 -2.5
v 11.5 9 11.5
v 11.5 9 -2.5
v -11.5 8 -10.5
v -11.5 8 -11.5
v -11.5 9 -10.5
v -11.5 9 -11.5
v -1.5 7 0.5
v -1.5 7 -0.5
v -1.5 8 0.5
v -1.5 8 -0.5
v -1.5 9 0.5
v -1.5 9 -0.5
v -1.5 10 0.5
v -1.5 10 -0.5
v -0.5 7 1.5
v -0.5 7 0.5
v -0.5 8 1.5
v -0.5 8 0.5
v -0.5 9 1.5
v -0.5 9 0.5
v -0.5 10 1.5
v -0.5 10 0.5
v 0.5 7 2.5
v 0.5 7 1.5
v 0.5 8 2.5
v 0.5 8 1.5
v 0.5 9 2.5
v 0.5 9 1.5
v 0.5 10 2.5
v 0.5 10 1.5
v 1.5 8 3.5
v 1.5 8 1.5
v 1.5 9 3.5
v 1.5 9 1.5
v 3.5 6 0.5
v 3.5 6 -3.5
v 3.5 7 0.5
v 3.5 7 -3.5
v 8.5 10 -0.5
v 8.5 10 -8.5
v 8.5 11 -0.5
v 8.5 11 -8.5
v 9.5 8 1.5
v 9.5 8 0.5
v 9.5 8 -9.5
v 9.5 9 1.5
v 9.5 9 0.5
v 9.5 10 0.5
v 9.5 10 -9.5
v 11.5 6 0.5
v 11.5 6 -11.5
v 11.5 7 0.5
v 11.5 7 -11.5
v 12.5 7 0.5
v 12.5 7 -12.5
v 12.5 8 12.5
v 12.5 8 11.5
v 12.5 8 0.5
v 12.5 8 -10.5
v 12.5 8 -12.5
v 12.5 9 12.5
v 12.5 9 11.5
v 12.5 9 -10.5
v 12.5 9 -12.5
v 10.5 8 12.5
v 10.5 9 12.5
v 12.5 8 12.5
v 12.5 9 12.5
v 0.5 8 3.5
v 0.5 9 3.5
v 1.5 8 3.5
v 1.5 9 3.5
v -1.5 8 2.5
v -1.5 9 2.5
v -0.5 7 2.5
v -0.5 8 2.5
v -0.5 9 2.5
v -0.5 10 2.5
v 0.5 7 2.5
v 0.5 8 2.5
v 0.5 9 2.5
v 0.5 10 2.5
v -2.5 8 1.5
v -2.5 9 1.5
v -1.5 7 1.5
v -1.5 8 1.5
v -1.5 9 1.5
v -1.5 10 1.5
v -0.5 7 1.5
v -0.5 8 1.5
v -0.5 9 1.5
v -0.5 10 1.5
v 1.5 8 1.5
v 1.5 9 1.5
v 9.5 8 1.5
v 9.5 9 1.5
v -2.5 7 0.5
v -2.5 8 0.5
v -2.5 9 0.5
v -2.5 10 0.5
v -1.5 7 0.5
v -1.5 8 0.5
v -1.5 9 0.5
v -1.5 10 0.5
v -0.5 6 0.5
v -0.5 7 0.5
v -0.5 8 0.5
v -0.5 9 0.5
v -0.5 10 0.5
v 1.5 8 0.5
v 1.5 9 0.5
v 3.5 6 0.5
v 3.5 7 0.5
v 8.5 6 0.5
v 8.5 7 0.5
v 9.5 8 0.5
v 9.5 9 0.5
v 9.5 10 0.5
v 11.5 6 0.5
v 11.5 7 0.5
v 11.5 8 0.5
v 12.5 7 0.5
v 12.5 8 0.5
v -3.5 8 -0.5
v -3.5 9 -0.5
v -2.5 8 -0.5
v -2.5 9 -0.5
v 0.5 10 -0.5
v 0.5 11 -0.5
v 8.5 10 -0.5
v 8.5 11 -0.5
v 10.5 8 -2.5
v 10.5 9 -2.5
v 11.5 8 -2.5
v 11.5 9 -2.5
v -0.5 6 -8.5
v -0.5 7 -8.5
v 8.5 6 -8.5
v 8.5 7 -8.5
v -12.5 8 -10.5
v -12.5 9 -10.5
v -11.5 8 -10.5
v -11.5 9 -10.5
v 2.5 8 -10.5
v 2.5 9 -10.5
v 10.5 8 -10.5
v 10.5 9 -10.5
v -11.5 8 -11.5
v -11.5 9 -11.5
v -0.5 8 -11.5
v 2.5 8 -11.5
v 2.5 9 -11.5
v 10.5 8 11.5
v 10.5 9 11.5
v 11.5 8 11.5
v 11.5 9 11.5
v -0.5 7 1.5
v -0.5 8 1.5
v -0.5 9 1.5
v -0.5 10 1.5
v 0.5 7 1.5
v 0.5 8 1.5
v 0.5 9 1.5
v 0.5 10 1.5
v -1.5 7 0.5
v -1.5 8 0.5
v -1.5 9 0.5
v -1.5 10 0.5
v -0.5 7 0.5
v -0.5 8 0.5
v -0.5 9 0.5
v -0.5 10 0.5
v -2.5 7 -0.5
v -2.5 8 -0.5
v -2.5 9 -0.5
v -2.5 10 -0.5
v -1.5 7 -0.5
v -1.5 8 -0.5
v -1.5 9 -0.5
v -1.5 10 -0.5
v -3.5 8 -1.5
v -3.5 9 -1.5
v -1.5 8 -1.5
v -1.5 9 -1.5
v -0.5 6 -3.5
v -0.5 7 -3.5
v 3.5 6 -3.5
v 3.5 7 -3.5
v 0.5 10 -8.5
v 0.5 11 -8.5
v 8.5 10 -8.5
v 8.5 11 -8.5
v -1.5 8 -9.5
v -1.5 9 -9.5
v -0.5 8 -9.5
v -0.5 9 -9.5
v -0.5 10 -9.5
v 9.5 8 -9.5
v 9.5 10 -9.5
v -0.5 6 -11.5
v -0.5 7 -11.5
v 11.5 6 -11.5
v 11.5 7 -11.5
v -12.5 8 -12.5
v -12.5 9 -12.5
v -11.5 8 -12.5
v -11.5 9 -12.5
v -0.5 7 -12.5
v -0.5 8 -12.5
v 10.5 8 -12.5
v 10.5 9 -12.5
v 12.5 7 -12.5
v 12.5 8 -12.5
v 12.5 9 -12.5
v -0.5 6 0.5
v 3.5 6 0.5
v 8.5 6 0.5
v 11.5 6 0.5
v -0.5 6 -3.5
v 3.5 6 -3.5
v -0.5 6 -8.5
v 8.5 6 -8.5
v -0.5 6 -11.5
v 11.5 6 -11.5
v -0.5 7 2.5
v 0.5 7 2.5
v -1.5 7 1.5
v -0.5 7 1.5
v 0.5 7 1.5
v -2.5 7 0.5
v -1.5 7 0.5
v -0.5 7 0.5
v 3.5 7 0.5
v 8.5 7 0.5
v 11.5 7 0.5
v 12.5 7 0.5
v -2.5 7 -0.5
v -1.5 7 -0.5
v -0.5 7 -3.5
v 3.5 7 -3.5
v -0.5 7 -8.5
v 8.5 7 -8.5
v -0.5 7 -11.5
v 11.5 7 -11.5
v -0.5 7 -12.5
v 12.5 7 -12.5
v 10.5 8 12.5
v 12.5 8 12.5
v 10.5 8 11.5
v 11.5 8 11.5
v 12.5 8 11.5
v 0.5 8 3.5
v 1.5 8 3.5
v -1.5 8 2.5
v -0.5 8 2.5
v 0.5 8 2.5
v -2.5 8 1.5
v -1.5 8 1.5
v -0.5 8 1.5
v 0.5 8 1.5
v 1.5 8 1.5
v 9.5 8 1.5
v -2.5 8 0.5
v -1.5 8 0.5
v -0.5 8 0.5
v 1.5 8 0.5
v 9.5 8 0.5
v 11.5 8 0.5
v 12.5 8 0.5
v -3.5 8 -0.5
v -2.5 8 -0.5
v -1.5 8 -0.5
v -3.5 8 -1.5
v -1.5 8 -1.5
v -0.5 8 -1.5
v -1.5 8 -9.5
v -0.5 8 -9.5
v -12.5 8 -10.5
v -11.5 8 -10.5
v -11.5 8 -11.5
v -0.5 8 -11.5
v -12.5 8 -12.5
v -11.5 8 -12.5
v -0.5 8 -12.5
v 9.5 8 0.5
v 11.5 8 0.5
v 10.5 8 -2.5
v 11.5 8 -2.5
v -0.5 8 -9.5
v 9.5 8 -9.5
v 2.5 8 -10.5
v 10.5 8 -10.5
v -0.5 8 -11.5
v 2.5 8 -11.5
v 10.5 9 12.5
v 12.5 9 12.5
v 10.5 9 11.5
v 11.5 9 11.5
v 12.5 9 11.5
v 0.5 9 3.5
v 1.5 9 3.5
v -1.5 9 2.5
v -0.5 9 2.5
v 0.5 9 2.5
v -2.5 9 1.5
v -1.5 9 1.5
v -0.5 9 1.5
v 0.5 9 1.5
v 1.5 9 1.5
v 9.5 9 1.5
v -2.5 9 0.5
v -1.5 9 0.5
v -0.5 9 0.5
v 1.5 9 0.5
v 9.5 9 0.5
v -3.5 9 -0.5
v -2.5 9 -0.5
v -1.5 9 -0.5
v -3.5 9 -1.5
v -1.5 9 -1.5
v -0.5 9 -1.5
v 10.5 9 -2.5
v 11.5 9 -2.5
v -1.5 9 -9.5
v -0.5 9 -9.5
v -12.5 9 -10.5
v -11.5 9 -10.5
v 2.5 9 -10.5
v 10.5 9 -10.5
v 11.5 9 -10.5
v 12.5 9 -10.5
v -11.5 9 -11.5
v 2.5 9 -11.5
v 10.5 9 -11.5
v 11.5 9 -11.5
v -12.5 9 -12.5
v -11.5 9 -12.5
v 10.5 9 -12.5
v 12.5 9 -12.5
v -0.5 10 2.5
v 0.5 10 2.5
v -1.5 10 1.5
v -0.5 10 1.5
v 0.5 10 1.5
v -2.5 10 0.5
v -1.5 10 0.5
v -0.5 10 0.5
v 9.5 10 0.5
v -2.5 10 -0.5
v -1.5 10 -0.5
v 0.5 10 -0.5
v 8.5 10 -0.5
v 0.5 10 -8.5
v 8.5 10 -8.5
v -0.5 10 -9.5
v 9.5 10 -9.5
v 0.5 11 -0.5
v 8.5 11 -0.5
v 0.5 11 -8.5
v 8.5 11 -8.5

# faces
f 3/2/1 2/2/1 1/2/1
f 4/2/1 2/2/1 3/2/1
f 7/2/1 6/2/1 5/2/1
f 8/2/1 6/2/1 7/2/1
f 12/2/1 10/2/1 9/2/1
f 13/2/1 10/2/1 12/2/1
f 14/1/1 12/1/1 11/1/1
f 15/2/1 13/2/1 12/2/1
f 15/1/1 12/1/1 14/1/1
f 16/2/1 13/2/1 15/2/1
f 17/2/1 16/2/1 15/2/1
f 18/2/1 16/2/1 17/2/1
f 22/2/1 20/2/1 19/2/1
f 23/2/1 20/2/1 22/2/1
f 26/1/1 22/1/1 21/1/1
f 27/1/1 22/1/1 26/1/1
f 29/1/1 25/1/1 24/1/1
f 30/1/1 25/1/1 29/1/1
f 31/2/1 28/2/1 27/2/1
f 32/2/1 28/2/1 31/2/1
f 39/1/1 34/1/1 33/1/1
f 40/1/1 34/1/1 39/1/1
f 41/1/1 36/1/1 35/1/1
f 42/1/1 36/1/1 41/1/1
f 44/2/1 38/2/1 37/2/1
f 45/2/1 38/2/1 44/2/1
f 46/1/1 43/1/1 42/1/1
f 46/1/1 40/1/1 39/1/1
f 46/1/1 41/1/1 40/1/1
f 46/1/1 42/1/1 41/1/1
f 47/1/1 43/1/1 46/1/1
f 48/1/1 43/1/1 47/1/1
f 49/1/1 43/1/1 48/1/1
f 50/1/1 43/1/1 49/1/1
f 56/2/1 52/2/1 51/2/1
f 57/2/1 52/2/1 56/2/1
f 58/1/1 55/1/1 54/1/1
f 58/1/1 54/1/1 53/1/1
f 59/1/1 55/1/1 58/1/1
f 62/2/1 61/2/1 60/2/1
f 63/2/1 61/2/1 62/2/1
f 66/1/1 65/1/1 64/1/1
f 67/1/1 65/1/1 66/1/1
f 70/1/1 69/1/1 68/1/1
f 71/1/1 69/1/1 70/1/1
f 74/1/1 73/1/1 72/1/1
f 75/1/1 73/1/1 74/1/1
f 80/2/1 77/2/1 76/2/1
f 81/2/1 77/2/1 80/2/1
f 82/1/1 79/1/1 78/1/1
f 83/1/1 79/1/1 82/1/1
f 87/1/1 85/1/1 84/1/1
f 87/1/1 86/1/1 85/1/1
f 88/1/1 86/1/1 87/1/1
f 89/2/2 90/2/2 91/2/2
f 91/2/2 90/2/2 92/2/2
f 93/2/2 94/2/2 95/2/2
f 95/2/2 94/2/2 96/2/2
f 97/2/2 98/2/2 99/2/2
f 99/2/2 98/2/2 100/2/2
f 101/2/2 102/2/2 103/2/2
f 103/2/2 102/2/2 104/2/2
f 105/2/2 106/2/2 107/2/2
f 107/2/2 106/2/2 108/2/2
f 109/2/2 110/2/2 111/2/2
f 111/2/2 110/2/2 112/2/2
f 113/2/2 114/2/2 115/2/2
f 115/2/2 114/2/2 116/2/2
f 117/2/2 118/2/2 119/2/2
f 119/2/2 118/2/2 120/2/2
f 121/1/2 122/1/2 123/1/2
f 123/1/2 122/1/2 124/1/2
f 125/1/2 126/1/2 127/1/2
f 127/1/2 126/1/2 128/1/2
f 129/1/2 130/1/2 132/1/2
f 130/1/2 131/1/2 132/1/2
f 132/1/2 131/1/2 133/1/2
f 133/1/2 131/1/2 134/1/2
f 134/1/2 131/1/2 135/1/2
f 136/1/2 137/1/2 138/1/2
f 138/1/2 137/1/2 139/1/2
f 140/1/2 141/1/2 144/1/2
f 144/1/2 141/1/2 145/1/2
f 145/1/2 141/1/2 146/1/2
f 142/2/2 143/2/2 147/2/2
f 143/1/2 144/1/2 148/1/2
f 147/2/2 143/2/2 148/2/2
f 144/1/2 145/1/2 148/1/2
f 145/2/2 146/2/2 149/2/2
f 148/1/2 145/1/2 149/1/2
f 149/2/2 146/2/2 150/2/2
f 153/2/3 152/2/3 151/2/3
f 154/2/3 152/2/3 153/2/3
f 157/2/3 156/2/3 155/2/3
f 158/2/3 156/2/3 157/2/3
f 162/1/3 160/1/3 159/1/3
f 163/1/3 160/1/3 162/1/3
f 165/2/3 162/2/3 161/2/3
f 165/2/3 164/2/3 163/2/3
f 165/2/3 163/2/3 162/2/3
f 166/2/3 164/2/3 165/2/3
f 167/2/3 164/2/3 166/2/3
f 168/2/3 164/2/3 167/2/3
f 172/1/3 170/1/3 169/1/3
f 173/1/3 170/1/3 172/1/3
f 175/2/3 172/2/3 171/2/3
f 176/2/3 172/2/3 175/2/3
f 177/2/3 174/2/3 173/2/3
f 178/2/3 174/2/3 177/2/3
f 181/1/3 180/1/3 179/1/3
f 182/1/3 180/1/3 181/1/3
f 187/2/3 184/2/3 183/2/3
f 188/2/3 184/2/3 187/2/3
f 189/2/3 186/2/3 185/2/3
f 190/2/3 186/2/3 189/2/3
f 196/1/3 192/1/3 191/1/3
f 196/1/3 193/1/3 192/1/3
f 197/1/3 195/1/3 194/1/3
f 198/1/3 196/1/3 191/1/3
f 199/1/3 196/1/3 198/1/3
f 201/1/3 196/1/3 199/1/3
f 202/1/3 196/1/3 201/1/3
f 202/1/3 201/1/3 200/1/3
f 203/1/3 195/1/3 197/1/3
f 204/1/3 195/1/3 203/1/3
f 205/1/3 202/1/3 200/1/3
f 206/1/3 202/1/3 205/1/3
f 207/1/3 202/1/3 206/1/3
f 208/1/3 207/1/3 206/1/3
f 209/1/3 207/1/3 208/1/3
f 212/2/3 211/2/3 210/2/3
f 213/2/3 211/2/3 212/2/3
f 216/1/3 215/1/3 214/1/3
f 217/1/3 215/1/3 216/1/3
f 220/1/3 219/1/3 218/1/3
f 221/1/3 219/1/3 220/1/3
f 224/1/3 223/1/3 222/1/3
f 225/1/3 223/1/3 224/1/3
f 228/2/3 227/2/3 226/2/3
f 229/2/3 227/2/3 228/2/3
f 232/1/3 231/1/3 230/1/3
f 233/1/3 231/1/3 232/1/3
f 236/1/3 235/1/3 234/1/3
f 237/1/3 235/1/3 236/1/3
f 238/1/3 235/1/3 237/1/3
f 239/2/4 240/2/4 241/2/4
f 241/2/4 240/2/4 242/2/4
f 243/2/4 244/2/4 247/2/4
f 247/2/4 244/2/4 248/2/4
f 245/2/4 246/2/4 249/2/4
f 249/2/4 246/2/4 250/2/4
f 251/2/4 252/2/4 255/2/4
f 255/2/4 252/2/4 256/2/4
f 253/2/4 254/2/4 257/2/4
f 257/2/4 254/2/4 258/2/4
f 259/2/4 260/2/4 263/2/4
f 263/2/4 260/2/4 264/2/4
f 261/2/4 262/2/4 265/2/4
f 265/2/4 262/2/4 266/2/4
f 267/2/4 268/2/4 269/2/4
f 269/2/4 268/2/4 270/2/4
f 271/1/4 272/1/4 273/1/4
f 273/1/4 272/1/4 274/1/4
f 275/1/4 276/1/4 277/1/4
f 277/1/4 276/1/4 278/1/4
f 279/1/4 280/1/4 281/1/4
f 281/1/4 280/1/4 282/1/4
f 281/1/4 282/1/4 284/1/4
f 282/1/4 283/1/4 284/1/4
f 284/1/4 283/1/4 285/1/4
f 286/1/4 287/1/4 288/1/4
f 288/1/4 287/1/4 289/1/4
f 290/2/4 291/2/4 292/2/4
f 292/2/4 291/2/4 293/2/4
f 292/1/4 293/1/4 295/1/4
f 295/1/4 293/1/4 296/1/4
f 294/1/4 295/1/4 296/1/4
f 296/1/4 293/1/4 297/1/4
f 294/1/4 296/1/4 298/1/4
f 296/2/4 297/2/4 299/2/4
f 298/1/4 296/1/4 299/1/4
f 299/2/4 297/2/4 300/2/4
f 305/1/5 302/1/5 301/1/5
f 306/1/5 302/1/5 305/1/5
f 308/1/5 304/1/5 303/1/5
f 309/1/5 308/1/5 307/1/5
f 310/1/5 304/1/5 308/1/5
f 310/1/5 308/1/5 309/1/5
f 314/2/5 312/2/5 311/2/5
f 315/2/5 312/2/5 314/2/5
f 317/2/5 314/2/5 313/2/5
f 318/2/5 314/2/5 317/2/5
f 323/2/5 317/2/5 316/2/5
f 324/2/5 317/2/5 323/2/5
f 326/1/5 320/1/5 319/1/5
f 327/1/5 326/1/5 325/1/5
f 328/1/5 320/1/5 326/1/5
f 328/1/5 326/1/5 327/1/5
f 330/1/5 322/1/5 321/1/5
f 331/1/5 330/1/5 329/1/5
f 332/1/5 322/1/5 330/1/5
f 332/1/5 330/1/5 331/1/5
f 335/2/5 334/2/5 333/2/5
f 336/2/5 334/2/5 335/2/5
f 337/2/5 334/2/5 336/2/5
f 342/2/5 339/2/5 338/2/5
f 344/1/5 341/1/5 340/1/5
f 345/1/5 341/1/5 344/1/5
f 346/2/5 339/2/5 342/2/5
f 347/2/5 339/2/5 346/2/5
f 349/1/5 344/1/5 343/1/5
f 350/1/5 344/1/5 349/1/5
f 351/2/5 347/2/5 346/2/5
f 351/2/5 346/2/5 345/2/5
f 352/1/5 348/1/5 347/1/5
f 352/2/5 347/2/5 351/2/5
f 353/1/5 348/1/5 352/1/5
f 354/1/5 337/1/5 336/1/5
f 355/1/5 337/1/5 354/1/5
f 358/2/5 351/2/5 350/2/5
f 359/2/5 357/2/5 356/2/5
f 359/2/5 358/2/5 357/2/5
f 360/2/5 351/2/5 358/2/5
f 360/2/5 358/2/5 359/2/5
f 361/2/5 351/2/5 360/2/5
f 362/1/5 361/1/5 360/1/5
f 363/1/5 361/1/5 362/1/5
f 366/2/5 365/2/5 364/2/5
f 368/2/5 366/2/5 364/2/5
f 369/1/5 367/1/5 366/1/5
f 369/2/5 366/2/5 368/2/5
f 370/1/5 367/1/5 369/1/5
f 371/1/6 372/1/6 373/1/6
f 373/1/6 372/1/6 374/1/6
f 371/1/6 373/1/6 376/1/6
f 375/1/6 376/1/6 377/1/6
f 376/1/6 373/1/6 378/1/6
f 377/1/6 376/1/6 378/1/6
f 375/1/6 377/1/6 379/1/6
f 379/1/6 377/1/6 380/1/6
f 381/2/6 382/2/6 383/2/6
f 383/2/6 382/2/6 384/2/6
f 384/2/6 382/2/6 385/2/6
f 386/2/6 387/2/6 390/2/6
f 388/1/6 389/1/6 392/1/6
f 392/1/6 389/1/6 393/1/6
f 390/2/6 387/2/6 394/2/6
f 394/2/6 387/2/6 395/2/6
f 391/1/6 392/1/6 397/1/6
f 397/1/6 392/1/6 398/1/6
f 394/2/6 395/2/6 399/2/6
f 393/2/6 394/2/6 399/2/6
f 395/1/6 396/1/6 400/1/6
f 399/2/6 395/2/6 400/2/6
f 400/1/6 396/1/6 401/1/6
f 398/2/6 399/2/6 404/2/6
f 402/2/6 403/2/6 405/2/6
f 403/2/6 404/2/6 405/2/6
f 404/2/6 399/2/6 406/2/6
f 405/2/6 404/2/6 406/2/6
f 406/2/6 399/2/6 407/2/6
f 384/1/6 385/1/6 409/1/6
f 406/1/6 407/1/6 410/1/6
f 410/1/6 407/1/6 411/1/6
f 408/1/6 409/1/6 415/1/6
f 409/1/6 385/1/6 416/1/6
f 415/1/6 409/1/6 416/1/6
f 416/1/6 385/1/6 417/1/6
f 412/2/6 413/2/6 418/2/6
f 414/1/6 415/1/6 419/1/6
f 415/1/6 416/1/6 419/1/6
f 419/1/6 416/1/6 420/1/6
f 416/2/6 417/2/6 421/2/6
f 420/1/6 416/1/6 421/1/6
f 412/2/6 418/2/6 422/2/6
f 419/1/6 420/1/6 423/1/6
f 422/2/6 418/2/6 423/2/6
f 418/1/6 419/1/6 423/1/6
f 420/2/6 421/2/6 424/2/6
f 423/1/6 420/1/6 424/1/6
f 421/2/6 417/2/6 425/2/6
f 424/2/6 421/2/6 425/2/6
f 426/2/6 427/2/6 429/2/6
f 429/2/6 427/2/6 430/2/6
f 428/2/6 429/2/6 432/2/6
f 432/2/6 429/2/6 433/2/6
f 431/2/6 432/2/6 435/2/6
f 435/2/6 432/2/6 436/2/6
f 433/1/6 434/1/6 437/1/6
f 437/1/6 434/1/6 438/1/6
f 433/1/6 437/1/6 439/1/6
f 438/1/6 434/1/6 440/1/6
f 433/1/6 439/1/6 441/1/6
f 439/1/6 440/1/6 441/1/6
f 440/1/6 434/1/6 442/1/6
f 441/1/6 440/1/6 442/1/6
f 443/1/6 444/1/6 445/1/6
f 445/1/6 444/1/6 446/1/6
